# xmcd
#
# Track frame offsets:
# 150
# 15570
# 35437
# 50992
# 63922
# 81127
# 97537
# 110995
# 125887
# 146467
# 165465
# 187097
# 208397
# 222330
# 237942
#
# Disc length: 3421 seconds
#
#
# Revision: 13
# Processed by: cddbd v1.5.2PL0 Copyright (c) Steve Scherf et al.
# Submitted via: FreeRIP 2.951 
#
DISCID=de0d5b0f
DTITLE=Various Artist - Moulin Rouge
DYEAR=2001
DGENRE=Soundtrack
TTITLE0=Nature Boy - David Bowie
TTITLE1=Lady Marmalade - Christina Aguilera, Lil' Kim, Mya and Pink
TTITLE2=Because We Can - Fatboy Slim
TTITLE3=Sparkling Diamonds - Nicole Kidman, Jim Broadbent, Caroline O'Connor, Natalie Mendoza and Lara Mulcahy
TTITLE4=Rhythm Of The Night - Valeria
TTITLE5=Your Song - Ewan McGregor and Alessandro Safina
TTITLE6=Children Of The Revolution - Bono, Gavin Friday and Maurice Seezer
TTITLE7=One Day I'll Fly Away - Nicole Kidman
TTITLE8=Diamond Dogs - Beck
TTITLE9=Elephant Love Medley - Nicole Kidman, Ewan McGregor and Jamie Allen
TTITLE10=Come What May - Nicole Kidman and Ewan McGregor
TTITLE11=El Tango De Roxanne - Ewan McGregor, Jose Feliciano and Jacek Koman
TTITLE12=Complainte De La Butte - Rufus Wainwright
TTITLE13=Hindi Sad Diamonds - Nicole Kidman, John Leguizamo and Alka Yagnik
TTITLE14=Nature Boy - David Bowie and Massive Attack
EXTD=
EXTT0=
EXTT1=
EXTT2=
EXTT3=
EXTT4=
EXTT5=
EXTT6=
EXTT7=
EXTT8=
EXTT9=
EXTT10=
EXTT11=
EXTT12=
EXTT13=
EXTT14=
PLAYORDER=
